# xmcd
#
# Track frame offsets:
#	150
#	17972
#	47575
#
# Disc length: 1050 seconds
#
# Revision: 15
# Processed by: cddbd v1.5.2PL0 Copyright (c) Steve Scherf et al.
# Submitted via: EasyCDDAExtractor 2011.0.0.0
#
DISCID=1d041803
DTITLE=Mirrorball - Burnin'
DYEAR=2000
DGENRE=House
TTITLE0=Burnin' (Radio Edit)
TTITLE1=Burnin' (Stuart's Ultimnate Party Groover Remix)
TTITLE2=Burnin' (Joe Fandango Remix)
EXTD=
EXTT0=
EXTT1=
EXTT2=
PLAYORDER=
